Coordinates
version=1
nRows=8
nColumns=36
inDegrees=yes

Units are S.I. units (second, meters, Newtons, ...)
If the header above contains a line with 'inDegrees', this indicates whether rotational values are in degrees (yes) or radians (no).

endheader
time	pelvis_tilt	pelvis_list	pelvis_rotation	pelvis_tx	pelvis_ty	pelvis_tz	hip_flexion_r	hip_adduction_r	hip_rotation_r	knee_angle_r	knee_angle_r_beta	ankle_angle_r	subtalar_angle_r	mtp_angle_r	hip_flexion_l	hip_adduction_l	hip_rotation_l	knee_angle_l	knee_angle_l_beta	ankle_angle_l	subtalar_angle_l	mtp_angle_l	lumbar_extension	lumbar_bending	lumbar_rotation	arm_flex_r	arm_add_r	arm_rot_r	elbow_flex_r	pro_sup_r	arm_flex_l	arm_add_l	arm_rot_l	elbow_flex_l	pro_sup_l
      4.00000000	      6.68287171	     -1.92893891	      2.62148828	      0.25554041	      0.65232340	     -0.17908007	     37.68493453	    -17.31869238	     -6.60732491	      6.16355727	      0.10757437	     -6.53619148	      6.03770270	     -7.49999987	     44.33464366	      8.55432440	     -4.66782589	     92.87053146	      1.62089655	     21.83211752	    -33.48866539	     -7.49999987	    -42.60343245	     -1.63900583	     -1.51030709	     96.51350383	      7.12404238	     67.32736659	    123.18872700	     90.93110976	     90.57103405	      5.92429213	     61.66791110	    108.11232386	     76.74661871
      4.01666670	      6.76125270	     -2.05746682	      2.67624330	      0.25461976	      0.65368821	     -0.17918649	     37.41529594	    -17.22756604	     -6.89638621	      6.02282608	      0.10511815	     -6.36043608	      6.53887686	     -7.49999987	     44.38450266	      8.54592500	     -4.52172195	     92.77561010	      1.61923986	     21.53773384	    -33.58968297	     -7.49999987	    -42.47112800	     -1.49970381	     -1.31456552	     96.39809089	      7.02658836	     66.99706678	    123.02037553	     97.34248023	     90.40740008	      6.00458222	     61.41464552	    107.60683575	     79.27934211
      4.03333330	      6.70040812	     -2.08385310	      2.65099866	      0.25502828	      0.65457968	     -0.17876938	     37.74825974	    -17.13049404	     -6.34315090	      6.42540784	      0.11214452	     -6.35125273	      6.11218758	     -7.49999987	     44.46767342	      8.41599174	     -4.52051555	     92.78619641	      1.61942463	     22.07233402	    -32.60187943	     -7.49999987	    -42.21221030	     -1.51865644	     -1.09405627	     96.31837438	      7.01709989	     67.36545554	    122.94997583	     93.13347622	     90.38415719	      6.11077490	     61.68592606	    107.31025382	     77.07131115
      4.05000000	      6.91375209	     -2.13286268	      2.87211697	      0.25629535	      0.65423727	     -0.17864825	     37.33133661	    -17.19005331	     -6.58653838	      6.19403875	      0.10810637	     -6.13475979	      6.43783581	     -7.49999987	     43.95512455	      8.59022102	     -4.32901197	     92.63788985	      1.61683619	     21.84385260	    -33.66881527	     -7.49999987	    -42.21007399	     -1.38124846	     -1.12197719	     96.40100554	      7.03748025	     67.35766475	    122.94975822	     90.07523961	     90.41749183	      6.02214915	     61.90529750	    107.55849519	     75.23215335
      4.06666670	      6.91866922	     -2.22909491	      3.00129733	      0.25682088	      0.65557306	     -0.17846389	     37.21468907	    -17.09722980	     -6.52629491	      6.26039535	      0.10926451	     -5.92986363	      6.25363065	     -7.49999987	     43.84953800	      8.44774328	     -4.35883567	     92.57227059	      1.61569092	     21.69394206	    -33.73531156	     -7.49999987	    -41.96808342	     -1.32595220	     -1.08688329	     96.14127566	      7.10506985	     66.74317146	    123.00450758	     97.59834518	     90.39035574	      6.10130274	     61.72801986	    107.24180056	     79.29401235
      4.08333330	      6.71167162	     -2.15706585	      2.87835758	      0.25809012	      0.65690473	     -0.17907063	     37.42034301	    -17.11252217	     -6.12301216	      6.34289766	      0.11070445	     -5.72192705	      5.68938468	     -7.49999987	     43.78389998	      8.44836050	     -4.46314688	     92.28110019	      1.61060904	     22.23430387	    -32.78320236	     -7.49999987	    -41.37584243	     -1.47313788	     -1.15708694	     95.92308967	      7.31025874	     67.56580690	    122.91406533	     89.36937609	     90.18524477	      5.78053594	     61.93509274	    107.45812395	     76.30264005
      4.10000000	      6.97225274	     -2.30161155	      3.00882052	      0.25781198	      0.65933041	     -0.17962158	     36.77026297	    -17.08745854	     -6.74921899	      5.94968473	      0.10384159	     -5.49932012	      6.22716652	     -7.49999987	     43.22075514	      8.48927403	     -4.23873829	     91.85765438	      1.60321851	     21.51619845	    -33.75037112	     -7.49999987	    -41.48041748	     -1.36755935	     -1.16441050	     95.72262374	      7.42072358	     66.85830257	    123.28752576	     98.07194133	     90.13304958	      5.95667324	     61.90123018	    107.26051087	     79.17215533
      4.11666670	      6.96363587	     -2.30247778	      3.07000153	      0.25964730	      0.66152316	     -0.17978594	     36.64294056	    -17.14936375	     -6.65110607	      5.98651022	      0.10448431	     -5.36151852	      6.11345513	     -7.49999987	     42.65137637	      8.49984935	     -4.05324629	     91.27026840	      1.59296669	     21.55940318	    -33.62500716	     -7.49999987	    -41.13729089	     -1.39750077	     -1.23005642	     95.44333968	      7.57618831	     67.13119217	    123.55122730	     97.98466237	     89.74865461	      6.06767297	     62.55563275	    108.21359404	     79.25450333
